<?xml version="1.0" encoding="UTF-8"?>
<svg width="14px" height="15px" viewBox="0 0 14 15" version="1.1" xmlns="http://www.w3.org/2000/svg" xmlns:xlink="http://www.w3.org/1999/xlink">
    <!-- Generator: Sketch 63.1 (92452) - https://sketch.com -->
    <title>detach-icon</title>
    <desc>Created with Sketch.</desc>
    <g id="Page-1" stroke="none" stroke-width="1" fill="none" fill-rule="evenodd">
        <g id="BGN-Network" transform="translate(-799.000000, -612.000000)">
            <g id="Group-4" transform="translate(40.000000, 200.000000)">
                <g id="Recommended-for-You">
                    <g id="Header" transform="translate(0.000000, 30.000000)">
                        <g id="Group-2" transform="translate(40.000000, 65.000000)">
                            <g id="Group-6" transform="translate(0.000000, 152.000000)">
                                <g id="Group" transform="translate(0.000000, 42.000000)">
                                    <g id="Group-7" transform="translate(702.000000, 99.000000)">
                                        <g id="detach-icon" transform="translate(17.000000, 24.000000)">
                                            <g>
                                                <path d="M5.92,10.47 C4.65,11.35 3.31,9.49 4.44,8.38 C6.1,6.75 3.55,4.21 1.89,5.84 C5.55111512e-17,7.7 -0.17,10.77 1.68,12.74 C3.08,14.23 5.05,14.55 6.81,13.95 L5.92,10.47 Z" id="Path" fill="#78CAC3" fill-rule="nonzero"></path>
                                                <path d="M12.22,2.41 C10.85,1.04 8.94,0.72 7.25,1.28 L8.14,4.77 C9.33,4.11 10.72,5.64 9.67,6.77 C8.1,8.47 10.63,11.02 12.21,9.32 C14.01,7.38 14.16,4.34 12.22,2.41 Z" id="Path" fill="#78CAC3" fill-rule="nonzero"></path>
                                                <polygon id="Path" fill="#78CAC3" fill-rule="nonzero" points="9.34 14.24 7.96 14.24 4.66 1.07 6.04 1.07"></polygon>
                                                <path d="M5.11,14.36 C3.79,14.36 2.54,13.83 1.6,12.82 C-0.25,10.85 -0.15,7.69 1.82,5.76 C2.23,5.36 2.72,5.17 3.25,5.21 C3.71,5.25 4.16,5.47 4.51,5.83 C4.86,6.18 5.06,6.63 5.09,7.08 C5.12,7.59 4.93,8.07 4.52,8.47 C3.97,9.01 4.06,9.75 4.43,10.19 C4.72,10.54 5.27,10.8 5.86,10.39 L5.99,10.3 L6.95,14.04 L6.85,14.07 C6.27,14.26 5.68,14.36 5.11,14.36 Z M3.09,5.42 C2.71,5.42 2.32,5.56 1.97,5.91 C0.09,7.76 2.22044605e-16,10.79 1.76,12.66 C3.03,14.01 4.86,14.46 6.67,13.87 L5.84,10.64 C5.21,10.99 4.6,10.74 4.24,10.32 C3.8,9.79 3.7,8.93 4.35,8.29 C4.71,7.94 4.88,7.52 4.85,7.08 C4.82,6.68 4.64,6.29 4.33,5.98 C4.02,5.65 3.57,5.42 3.09,5.42 Z" id="Shape" fill="#000000" fill-rule="nonzero"></path>
                                                <g id="Group" transform="translate(4.000000, 0.000000)" fill="#000000" fill-rule="nonzero">
                                                    <polygon id="Path" points="1.36 4.34 1.94 6.63 2.15 6.57 1.58 4.28"></polygon>
                                                    <polygon id="Path" points="2.13 0.96 0.52 0.96 1.05 3.07 1.26 3.01 0.81 1.18 1.95 1.18 5.19 14.13 4.05 14.13 2.47 7.84 2.25 7.9 3.85 14.27 3.87 14.36 5.48 14.35"></polygon>
                                                </g>
                                                <path d="M12.59,8.65 C12.45,8.85 12.31,9.06 12.13,9.25 C11.4,10.04 10.48,9.84 9.9,9.3 C9.25,8.7 9,7.67 9.75,6.85 C10.35,6.2 10.18,5.48 9.85,5.06 C9.6,4.75 9.2,4.5 8.74,4.5 C8.57,4.5 8.39,4.53 8.21,4.61 L7.38,1.35 C9.11,0.82 10.88,1.24 12.13,2.49 C13.46,3.82 13.81,5.76 13.18,7.49 L13.38,7.61 C14.05,5.8 13.69,3.74 12.29,2.34 C10.97,1 9.06,0.57 7.22,1.17 L7.12,1.2 L8.07,4.94 L8.2,4.87 C8.78,4.54 9.37,4.81 9.68,5.19 C9.96,5.54 10.1,6.15 9.59,6.69 C8.73,7.62 9.02,8.78 9.75,9.46 C10.09,9.77 10.55,9.99 11.03,9.99 C11.46,9.99 11.91,9.82 12.3,9.39 C12.49,9.19 12.64,8.97 12.79,8.75 L12.59,8.65 Z" id="Path" fill="#000000" fill-rule="nonzero"></path>
                                            </g>
                                        </g>
                                    </g>
                                </g>
                            </g>
                        </g>
                    </g>
                </g>
            </g>
        </g>
    </g>
</svg>