<?xml version="1.0" encoding="UTF-8"?>
<svg width="10px" height="10px" viewBox="0 0 10 10" version="1.1" xmlns="http://www.w3.org/2000/svg" xmlns:xlink="http://www.w3.org/1999/xlink">
    <!-- Generator: Sketch 63.1 (92452) - https://sketch.com -->
    <title>icon-restart</title>
    <desc>Created with Sketch.</desc>
    <g id="Symbols" stroke="none" stroke-width="1" fill="none" fill-rule="evenodd">
        <g id="Power-Buttons" transform="translate(-196.000000, -8.000000)">
            <g id="Restart" transform="translate(180.000000, 0.000000)">
                <g id="Group-4" transform="translate(16.000000, 6.000000)">
                    <g id="icon-restart" transform="translate(0.000000, 2.000000)">
                        <g id="Group">
                            <g fill="#78CAC3" fill-rule="nonzero">
                                <path d="M9.05,4.27 C8.99,3.88 8.85,3.51 8.68,3.15 C8.61,3.01 8.54,2.88 8.46,2.76 C8.31,2.54 8.12,2.37 7.86,2.3 C7.73,2.26 7.59,2.25 7.46,2.28 C7.33,2.29 7.2,2.33 7.08,2.4 C6.86,2.54 6.67,2.75 6.62,3 C6.56,3.26 6.57,3.55 6.72,3.78 C6.81,3.91 6.89,4.05 6.95,4.19 C7.02,4.37 7.06,4.55 7.1,4.73 C7.12,4.92 7.12,5.11 7.1,5.29 C7.07,5.47 7.02,5.65 6.95,5.83 C6.87,5.99 6.78,6.15 6.68,6.3 C6.56,6.44 6.44,6.57 6.3,6.68 C6.15,6.78 6,6.88 5.83,6.95 C5.66,7.01 5.48,7.06 5.29,7.1 C5.1,7.12 4.91,7.12 4.73,7.1 C4.55,7.07 4.37,7.02 4.19,6.95 C4.03,6.87 3.87,6.78 3.72,6.68 C3.58,6.56 3.45,6.44 3.34,6.3 C3.24,6.15 3.14,6 3.07,5.83 C3.01,5.66 2.96,5.48 2.92,5.29 C2.9,5.1 2.9,4.91 2.92,4.73 C2.95,4.55 3,4.37 3.07,4.19 C3.15,4.03 3.24,3.87 3.34,3.72 C3.46,3.58 3.58,3.45 3.72,3.34 C3.78,3.3 3.85,3.25 3.91,3.21 C4.03,3.46 4.18,3.84 4.49,3.81 C4.65,3.8 4.77,3.68 4.85,3.56 C5.24,2.96 5.64,2.36 6.03,1.76 C6.12,1.63 6.2,1.5 6.29,1.37 C6.37,1.26 6.44,1.14 6.45,1 C6.47,0.73 6.22,0.59 5.98,0.58 C5.88,0.57 5.79,0.57 5.69,0.56 C4.9,0.51 4.12,0.47 3.33,0.42 C3.17,0.41 3.01,0.41 2.88,0.52 C2.71,0.67 2.75,0.91 2.84,1.09 C2.89,1.19 2.94,1.29 2.99,1.39 C2.63,1.59 2.3,1.84 2.02,2.14 C1.55,2.63 1.21,3.23 1.02,3.88 C0.83,4.55 0.83,5.26 0.98,5.94 C1.05,6.26 1.18,6.58 1.32,6.87 C1.46,7.17 1.66,7.43 1.87,7.68 C2.05,7.9 2.26,8.08 2.49,8.26 C2.72,8.44 2.95,8.59 3.21,8.71 C3.52,8.85 3.82,8.97 4.15,9.03 C4.48,9.09 4.83,9.13 5.17,9.11 C5.84,9.07 6.49,8.89 7.08,8.55 C7.64,8.22 8.11,7.76 8.47,7.22 C8.65,6.95 8.79,6.64 8.9,6.33 C9.02,6.01 9.07,5.69 9.11,5.35 C9.15,5.01 9.11,4.65 9.05,4.27 Z" id="Path"></path>
                                <path d="M9.12,4.26 C9.04,3.78 8.86,3.31 8.61,2.89 C8.5,2.71 8.38,2.53 8.21,2.41 C8.04,2.28 7.82,2.2 7.6,2.2 C7.36,2.2 7.13,2.26 6.94,2.41 C6.78,2.53 6.64,2.69 6.56,2.88 C6.48,3.07 6.47,3.3 6.5,3.51 C6.54,3.74 6.69,3.92 6.8,4.12 C6.92,4.34 7,4.6 7.01,4.85 C7.02,4.98 7.02,5.11 7.01,5.24 C7,5.37 6.97,5.49 6.93,5.61 C6.79,6.08 6.47,6.5 6.05,6.75 C5.95,6.81 5.84,6.88 5.72,6.92 C5.6,6.96 5.48,6.99 5.36,7.02 C5.11,7.08 4.82,7.07 4.56,7.01 C4.44,6.98 4.32,6.95 4.2,6.9 C4.09,6.86 3.98,6.79 3.87,6.72 C3.67,6.59 3.47,6.42 3.33,6.22 C3.19,6.02 3.08,5.8 3.01,5.56 C2.94,5.31 2.92,5.05 2.94,4.79 C2.96,4.55 3.05,4.29 3.16,4.07 C3.22,3.96 3.28,3.85 3.36,3.76 C3.44,3.67 3.52,3.58 3.61,3.5 C3.7,3.42 3.8,3.35 3.9,3.28 C3.87,3.27 3.83,3.26 3.8,3.25 C3.89,3.45 3.98,3.68 4.17,3.82 C4.4,3.98 4.68,3.86 4.83,3.65 C4.94,3.51 5.03,3.35 5.13,3.2 C5.23,3.04 5.34,2.89 5.44,2.73 C5.65,2.41 5.86,2.1 6.06,1.78 C6.15,1.64 6.25,1.5 6.34,1.35 C6.42,1.22 6.49,1.08 6.47,0.92 C6.44,0.67 6.2,0.53 5.97,0.51 C5.8,0.49 5.62,0.49 5.44,0.48 C5.25,0.47 5.06,0.46 4.86,0.45 C4.49,0.43 4.11,0.41 3.74,0.38 C3.54,0.37 3.34,0.34 3.14,0.35 C2.98,0.36 2.82,0.41 2.72,0.54 C2.51,0.82 2.74,1.18 2.87,1.44 C2.88,1.41 2.89,1.37 2.9,1.34 C1.9,1.9 1.15,2.86 0.87,3.98 C0.57,5.19 0.82,6.52 1.58,7.51 C1.94,7.98 2.39,8.39 2.91,8.68 C3.45,8.98 4.06,9.15 4.67,9.2 C5.85,9.29 7.05,8.83 7.88,8 C8.29,7.59 8.61,7.11 8.83,6.57 C9.07,5.99 9.17,5.34 9.12,4.71 C9.17,4.56 9.15,4.41 9.12,4.26 C9.11,4.17 8.97,4.21 8.98,4.3 C9.03,4.61 9.06,4.93 9.04,5.24 C9.02,5.54 8.97,5.85 8.89,6.15 C8.73,6.7 8.45,7.21 8.09,7.64 C7.74,8.05 7.32,8.39 6.84,8.64 C6.32,8.9 5.75,9.04 5.18,9.07 C4.01,9.13 2.8,8.63 2.02,7.75 C1.63,7.31 1.33,6.8 1.15,6.24 C0.97,5.67 0.92,5.04 1,4.45 C1.15,3.35 1.78,2.32 2.7,1.69 C2.81,1.61 2.93,1.54 3.05,1.47 C3.09,1.45 3.09,1.41 3.08,1.37 C3.01,1.24 2.93,1.11 2.89,0.97 C2.86,0.86 2.84,0.74 2.91,0.65 C2.99,0.53 3.14,0.51 3.27,0.51 C3.42,0.51 3.58,0.53 3.73,0.54 C4.39,0.58 5.05,0.62 5.71,0.66 C5.92,0.67 6.24,0.65 6.36,0.87 C6.42,0.99 6.38,1.12 6.32,1.23 C6.25,1.36 6.16,1.48 6.08,1.6 C5.72,2.15 5.36,2.7 4.99,3.25 C4.86,3.45 4.66,3.88 4.35,3.74 C4.15,3.65 4.06,3.38 3.97,3.19 C3.95,3.16 3.9,3.15 3.87,3.16 C3.47,3.41 3.12,3.8 2.96,4.25 C2.88,4.5 2.83,4.74 2.82,5 C2.82,5.26 2.86,5.5 2.95,5.75 C3.1,6.21 3.45,6.62 3.86,6.87 C3.96,6.93 4.06,6.99 4.17,7.04 C4.29,7.09 4.41,7.12 4.54,7.15 C4.66,7.18 4.78,7.19 4.91,7.2 C5.04,7.2 5.18,7.21 5.31,7.18 C5.55,7.14 5.8,7.07 6.01,6.95 C6.12,6.89 6.22,6.83 6.32,6.76 C6.42,6.69 6.5,6.6 6.59,6.51 C6.92,6.16 7.15,5.67 7.17,5.18 C7.18,5.04 7.18,4.91 7.16,4.77 C7.15,4.65 7.12,4.53 7.08,4.41 C7.04,4.29 7,4.17 6.95,4.06 C6.89,3.95 6.83,3.85 6.76,3.75 C6.64,3.56 6.62,3.32 6.66,3.1 C6.7,2.88 6.82,2.7 6.99,2.56 C7.08,2.48 7.18,2.42 7.3,2.39 C7.36,2.37 7.41,2.37 7.47,2.36 C7.54,2.35 7.6,2.34 7.67,2.35 C7.9,2.36 8.11,2.48 8.26,2.64 C8.42,2.81 8.54,3.02 8.63,3.23 C8.74,3.46 8.84,3.7 8.91,3.95 C8.94,4.07 8.97,4.19 8.99,4.31 C9,4.39 9.14,4.35 9.12,4.26 Z" id="Path"></path>
                            </g>
                            <g fill="#000000" fill-rule="nonzero">
                                <path d="M6.75,8.67 C6.26,8.9 5.72,9.04 5.18,9.07 C4.01,9.13 2.8,8.63 2.02,7.75 C1.63,7.31 1.33,6.8 1.15,6.24 C0.97,5.67 0.92,5.04 1,4.45 C1.15,3.35 1.78,2.32 2.7,1.69 C2.81,1.61 2.93,1.54 3.05,1.47 C3.09,1.45 3.09,1.41 3.08,1.37 C3.01,1.24 2.93,1.11 2.89,0.97 C2.86,0.86 2.84,0.74 2.91,0.65 C2.99,0.53 3.14,0.51 3.27,0.51 C3.42,0.51 3.58,0.53 3.73,0.54 C4.39,0.58 5.05,0.62 5.71,0.66 C5.92,0.67 6.24,0.65 6.36,0.87 C6.42,0.99 6.38,1.12 6.32,1.23 C6.25,1.36 6.16,1.48 6.08,1.6 C5.72,2.15 5.36,2.7 4.99,3.25 C4.86,3.45 4.66,3.88 4.35,3.74 C4.15,3.65 4.06,3.38 3.97,3.19 C3.95,3.16 3.9,3.15 3.87,3.16 C3.47,3.41 3.12,3.8 2.96,4.25 C2.88,4.5 2.83,4.74 2.82,5 C2.82,5.26 2.86,5.5 2.95,5.75 C3.1,6.21 3.45,6.62 3.86,6.87 C3.96,6.93 4.06,6.99 4.17,7.04 C4.29,7.09 4.41,7.12 4.54,7.15 C4.66,7.18 4.79,7.19 4.91,7.2 C5.04,7.2 5.18,7.21 5.31,7.18 C5.55,7.14 5.8,7.07 6.01,6.95 C6.11,6.89 6.22,6.83 6.32,6.76 C6.42,6.69 6.5,6.6 6.59,6.51 C6.92,6.16 7.15,5.67 7.17,5.18 C7.18,5.04 7.18,4.91 7.16,4.77 C7.15,4.65 7.12,4.53 7.08,4.41 C7.04,4.29 7,4.17 6.95,4.06 C6.89,3.95 6.83,3.85 6.76,3.75 C6.64,3.56 6.62,3.32 6.66,3.1 C6.7,2.88 6.82,2.7 6.99,2.56 C7.08,2.48 7.18,2.42 7.3,2.39 C7.36,2.37 7.41,2.37 7.47,2.36 C7.54,2.35 7.6,2.34 7.67,2.35 C7.9,2.36 8.11,2.48 8.26,2.64 C8.42,2.81 8.54,3.02 8.63,3.23 C8.74,3.46 8.84,3.7 8.91,3.95 C8.94,4.07 8.97,4.19 8.99,4.31 C9.04,4.62 9.07,4.94 9.05,5.25 C9.05,5.31 9.03,5.37 9.02,5.42 L9.17,5.47 C9.2,5.22 9.21,4.97 9.19,4.73 C9.18,4.57 9.16,4.42 9.13,4.27 C9.05,3.79 8.87,3.32 8.62,2.9 C8.51,2.72 8.39,2.54 8.22,2.42 C8.05,2.29 7.83,2.21 7.61,2.21 C7.37,2.21 7.14,2.27 6.95,2.42 C6.79,2.54 6.65,2.7 6.57,2.89 C6.49,3.08 6.48,3.31 6.51,3.52 C6.55,3.75 6.7,3.93 6.81,4.13 C6.93,4.35 7.01,4.61 7.02,4.86 C7.03,4.99 7.03,5.12 7.02,5.25 C7.01,5.38 6.98,5.5 6.94,5.62 C6.8,6.09 6.48,6.51 6.06,6.76 C5.96,6.82 5.85,6.89 5.73,6.93 C5.61,6.97 5.49,7 5.37,7.03 C5.12,7.09 4.83,7.08 4.57,7.02 C4.45,6.99 4.33,6.96 4.21,6.91 C4.1,6.87 3.99,6.8 3.89,6.73 C3.69,6.6 3.49,6.43 3.35,6.23 C3.21,6.03 3.1,5.81 3.03,5.57 C2.96,5.32 2.94,5.06 2.96,4.8 C2.98,4.56 3.07,4.3 3.18,4.08 C3.24,3.97 3.3,3.86 3.38,3.77 C3.46,3.68 3.54,3.59 3.63,3.51 C3.7,3.44 3.78,3.39 3.86,3.34 C3.94,3.52 4.03,3.72 4.2,3.83 C4.43,3.99 4.71,3.86 4.86,3.66 C4.97,3.52 5.06,3.36 5.16,3.21 C5.26,3.05 5.37,2.9 5.47,2.74 C5.68,2.42 5.89,2.11 6.09,1.79 C6.18,1.65 6.28,1.51 6.37,1.36 C6.45,1.23 6.52,1.09 6.5,0.93 C6.47,0.68 6.23,0.54 6,0.52 C5.83,0.5 5.65,0.5 5.47,0.49 C5.28,0.48 5.09,0.47 4.89,0.46 C4.52,0.44 4.14,0.42 3.77,0.39 C3.57,0.38 3.37,0.35 3.17,0.36 C3.01,0.37 2.85,0.42 2.75,0.55 C2.55,0.81 2.74,1.13 2.87,1.39 C1.9,1.95 1.17,2.9 0.89,3.99 C0.59,5.2 0.84,6.53 1.6,7.52 C1.96,7.99 2.41,8.4 2.93,8.69 C3.47,8.99 4.08,9.16 4.69,9.21 C5.41,9.26 6.12,9.09 6.77,8.78 L6.75,8.67 Z" id="Path"></path>
                                <path d="M8.84,6.28 C8.68,6.78 8.43,7.24 8.09,7.64 C7.91,7.85 7.71,8.04 7.5,8.21 L7.56,8.32 C7.69,8.22 7.83,8.13 7.94,8.01 C8.35,7.6 8.67,7.12 8.89,6.58 C8.92,6.5 8.95,6.41 8.98,6.32 L8.84,6.28 Z" id="Path"></path>
                            </g>
                        </g>
                    </g>
                </g>
            </g>
        </g>
    </g>
</svg>