<?xml version="1.0" encoding="UTF-8"?>
<svg width="10px" height="10px" viewBox="0 0 10 10" version="1.1" xmlns="http://www.w3.org/2000/svg" xmlns:xlink="http://www.w3.org/1999/xlink">
    <!-- Generator: Sketch 63.1 (92452) - https://sketch.com -->
    <title>icon-turnoff</title>
    <desc>Created with Sketch.</desc>
    <g id="Symbols" stroke="none" stroke-width="1" fill="none" fill-rule="evenodd">
        <g id="Power-Buttons" transform="translate(-278.000000, -7.000000)">
            <g id="Turn-Off" transform="translate(270.000000, 0.000000)">
                <g id="Group" transform="translate(8.000000, 6.000000)">
                    <g id="icon-turnoff" transform="translate(0.000000, 1.000000)">
                        <g>
                            <path d="M9.49,4.2 C9.46,4 9.41,3.81 9.35,3.62 C9.21,3.2 9.02,2.78 8.76,2.42 C8.61,2.21 8.45,2.01 8.27,1.82 C8.09,1.64 7.9,1.48 7.69,1.32 C7.33,1.05 6.93,0.85 6.5,0.69 C6.32,0.62 6.13,0.57 5.94,0.53 C5.68,0.48 5.41,0.44 5.14,0.43 C4.94,0.42 4.73,0.43 4.53,0.46 C4.26,0.49 4,0.53 3.74,0.6 C3.49,0.67 3.26,0.77 3.02,0.87 C2.84,0.95 2.68,1.04 2.52,1.15 C2.15,1.39 1.8,1.69 1.52,2.03 C1.36,2.23 1.2,2.43 1.07,2.65 C0.94,2.87 0.83,3.11 0.73,3.35 C0.56,3.78 0.47,4.23 0.43,4.69 C0.41,4.89 0.41,5.1 0.43,5.3 C0.45,5.57 0.49,5.83 0.55,6.1 C0.6,6.28 0.66,6.47 0.73,6.64 C0.83,6.88 0.93,7.12 1.07,7.34 C1.3,7.72 1.59,8.07 1.92,8.37 C2.25,8.67 2.62,8.93 3.03,9.11 C3.27,9.22 3.51,9.31 3.75,9.38 C4.01,9.45 4.27,9.49 4.53,9.52 C5,9.58 5.48,9.54 5.94,9.44 C6.38,9.35 6.81,9.18 7.2,8.96 C7.43,8.83 7.63,8.68 7.83,8.52 C7.98,8.4 8.12,8.28 8.25,8.14 C8.56,7.82 8.83,7.45 9.02,7.05 C9.22,6.64 9.38,6.21 9.45,5.77 C9.49,5.51 9.52,5.24 9.52,4.98 C9.57,4.74 9.54,4.47 9.49,4.2 Z M7.89,5.4 C7.85,5.65 7.78,5.9 7.69,6.14 C7.59,6.37 7.46,6.58 7.31,6.78 C7.15,6.97 6.97,7.15 6.78,7.31 C6.58,7.46 6.36,7.58 6.14,7.69 C5.9,7.78 5.65,7.85 5.4,7.89 C5.14,7.92 4.88,7.92 4.62,7.89 C4.37,7.85 4.12,7.78 3.88,7.69 C3.65,7.59 3.44,7.46 3.24,7.31 C3.05,7.15 2.87,6.97 2.71,6.78 C2.56,6.58 2.44,6.36 2.33,6.14 C2.24,5.9 2.17,5.65 2.13,5.4 C2.1,5.14 2.1,4.88 2.13,4.62 C2.17,4.37 2.24,4.12 2.33,3.88 C2.43,3.65 2.56,3.44 2.71,3.24 C2.87,3.05 3.05,2.87 3.24,2.71 C3.44,2.56 3.66,2.44 3.88,2.33 C4.12,2.24 4.37,2.17 4.62,2.13 C4.88,2.1 5.14,2.1 5.4,2.13 C5.65,2.17 5.9,2.24 6.14,2.33 C6.37,2.43 6.58,2.56 6.78,2.71 C6.97,2.87 7.15,3.05 7.31,3.24 C7.46,3.44 7.58,3.66 7.69,3.88 C7.78,4.12 7.85,4.37 7.89,4.62 C7.9,4.75 7.91,4.88 7.91,5.01 C7.91,5.14 7.91,5.27 7.89,5.4 Z" id="Shape" fill="#78CAC3" fill-rule="nonzero"></path>
                            <g id="Group" transform="translate(3.000000, 2.000000)" fill-rule="nonzero">
                                <path d="M2.24,4.95 L1.74,4.95 C1.31,4.95 0.97,4.6 0.97,4.18 L0.97,1.82 C0.97,1.39 1.32,1.05 1.74,1.05 L2.24,1.05 C2.67,1.05 3.01,1.4 3.01,1.82 L3.01,4.18 C3.01,4.6 2.67,4.95 2.24,4.95 Z" id="Path" fill="#78CAC3"></path>
                                <path d="M2.24,4.88 C1.9,4.88 1.52,4.94 1.25,4.68 C1.11,4.54 1.04,4.36 1.04,4.17 C1.04,4.09 1.04,4 1.04,3.92 C1.04,3.26 1.04,2.6 1.04,1.94 C1.04,1.85 1.04,1.77 1.05,1.68 C1.1,1.43 1.29,1.22 1.54,1.15 C1.7,1.1 1.88,1.12 2.04,1.12 C2.22,1.12 2.4,1.11 2.57,1.21 C2.79,1.33 2.93,1.57 2.93,1.82 C2.93,1.88 2.93,1.94 2.93,2 C2.93,2.33 2.93,2.66 2.93,2.99 C2.93,3.32 2.93,3.66 2.93,3.99 C2.93,4.05 2.93,4.12 2.93,4.18 C2.93,4.42 2.81,4.65 2.6,4.77 C2.5,4.84 2.37,4.88 2.24,4.88 C2.15,4.88 2.15,5.03 2.24,5.02 C2.72,5.01 3.08,4.62 3.08,4.15 C3.08,3.87 3.08,3.58 3.08,3.3 C3.08,2.92 3.08,2.54 3.08,2.16 C3.08,1.87 3.1,1.58 2.92,1.33 C2.76,1.11 2.51,0.98 2.23,0.98 C2.08,0.98 1.93,0.98 1.78,0.98 C1.55,0.98 1.34,1.04 1.17,1.19 C0.99,1.35 0.89,1.58 0.89,1.82 C0.88,2.45 0.89,3.08 0.89,3.72 C0.89,3.96 0.86,4.25 0.95,4.48 C1.05,4.73 1.27,4.93 1.53,4.99 C1.7,5.03 1.89,5.02 2.06,5.02 C2.12,5.02 2.18,5.02 2.23,5.02 C2.33,5.02 2.33,4.88 2.24,4.88 Z" id="Path" fill="#000000"></path>
                            </g>
                            <g id="Group" fill="#000000" fill-rule="nonzero">
                                <path d="M7.67,1.4 C7.67,1.4 7.68,1.41 7.68,1.41 C7.86,1.55 8.04,1.7 8.2,1.86 C8.36,2.02 8.5,2.2 8.64,2.39 C8.91,2.75 9.11,3.15 9.25,3.57 C9.28,3.65 9.29,3.73 9.31,3.8 L9.45,3.77 C9.24,3 8.83,2.28 8.27,1.73 C8.1,1.56 7.92,1.41 7.73,1.27 L7.67,1.4 Z" id="Path"></path>
                                <path d="M9.47,4.67 C9.48,4.76 9.49,4.85 9.5,4.94 C9.51,5.19 9.48,5.44 9.44,5.69 C9.37,6.15 9.23,6.58 9.03,7 C8.64,7.81 7.99,8.49 7.21,8.93 C6.4,9.39 5.44,9.59 4.51,9.48 C4.28,9.45 4.04,9.41 3.82,9.35 C3.59,9.29 3.37,9.2 3.16,9.11 C2.76,8.93 2.39,8.69 2.06,8.4 C1.39,7.82 0.89,7.02 0.67,6.15 C0.44,5.24 0.48,4.25 0.84,3.38 C0.93,3.16 1.03,2.95 1.14,2.74 C1.26,2.54 1.39,2.36 1.53,2.19 C1.81,1.85 2.13,1.56 2.49,1.31 C3.26,0.78 4.21,0.51 5.14,0.54 C5.75,0.56 6.35,0.71 6.91,0.97 L6.98,0.84 C6.61,0.67 6.23,0.53 5.83,0.46 C5.34,0.38 4.86,0.37 4.37,0.43 C4.12,0.46 3.88,0.51 3.64,0.58 C3.41,0.65 3.19,0.74 2.97,0.85 C2.15,1.23 1.43,1.91 0.98,2.7 C0.5,3.54 0.28,4.53 0.39,5.5 C0.42,5.74 0.45,5.98 0.52,6.21 C0.58,6.44 0.67,6.67 0.77,6.89 C0.95,7.31 1.2,7.7 1.5,8.05 C2.1,8.74 2.91,9.26 3.8,9.49 C4.74,9.74 5.77,9.69 6.68,9.34 C7.55,9 8.31,8.39 8.84,7.62 C9.1,7.24 9.3,6.81 9.44,6.37 C9.51,6.14 9.56,5.9 9.59,5.66 C9.62,5.41 9.65,5.17 9.64,4.92 C9.64,4.83 9.62,4.74 9.61,4.65 L9.47,4.67 Z" id="Path"></path>
                            </g>
                            <path d="M7.93,4.44 C7.87,4.14 7.77,3.86 7.62,3.59 C7.48,3.33 7.3,3.1 7.09,2.89 C6.88,2.68 6.64,2.51 6.38,2.37 C6.11,2.22 5.81,2.13 5.51,2.07 C5.35,2.04 5.19,2.03 5.03,2.03 C4.88,2.03 4.72,2.03 4.56,2.06 C3.96,2.16 3.4,2.42 2.96,2.84 C2.74,3.05 2.56,3.27 2.42,3.53 C2.27,3.8 2.16,4.08 2.09,4.38 C2.03,4.66 2.02,4.95 2.04,5.24 L2.19,5.21 C2.18,5.09 2.18,4.98 2.18,4.86 C2.19,4.56 2.26,4.26 2.37,3.98 C2.42,3.85 2.49,3.72 2.56,3.6 C2.63,3.48 2.7,3.36 2.79,3.25 C3.15,2.81 3.62,2.47 4.17,2.31 C4.31,2.27 4.46,2.23 4.61,2.21 C4.76,2.19 4.91,2.19 5.06,2.19 C5.36,2.19 5.65,2.25 5.94,2.34 C6.21,2.43 6.45,2.57 6.69,2.73 C6.81,2.81 6.91,2.91 7.02,3.02 C7.12,3.12 7.22,3.22 7.3,3.34 C7.46,3.57 7.61,3.82 7.7,4.1 C7.79,4.39 7.85,4.67 7.85,4.97 C7.85,5.12 7.84,5.26 7.83,5.41 C7.78,5.7 7.71,5.99 7.58,6.25 C7.45,6.5 7.31,6.73 7.11,6.94 C6.91,7.15 6.7,7.33 6.46,7.47 C6.21,7.62 5.95,7.72 5.66,7.79 C5.36,7.86 5.06,7.87 4.75,7.85 C4.6,7.84 4.45,7.81 4.31,7.77 C4.17,7.73 4.02,7.69 3.89,7.63 C3.38,7.4 2.93,7.03 2.63,6.55 C2.54,6.4 2.46,6.24 2.4,6.08 L2.26,6.11 C2.28,6.15 2.28,6.2 2.3,6.24 C2.43,6.51 2.58,6.76 2.78,6.98 C2.98,7.2 3.2,7.39 3.45,7.55 C3.71,7.71 3.98,7.83 4.28,7.91 C4.59,7.99 4.9,8.02 5.22,8 C6.44,7.94 7.53,7.06 7.87,5.89 C7.91,5.74 7.95,5.59 7.97,5.44 C7.97,5.44 7.97,5.43 7.97,5.43 C7.97,5.43 7.97,5.42 7.97,5.42 C8,5.08 8,4.75 7.93,4.44 Z" id="Path" fill="#000000" fill-rule="nonzero"></path>
                        </g>
                    </g>
                </g>
            </g>
        </g>
    </g>
</svg>