<?xml version="1.0" encoding="UTF-8"?>
<svg width="9px" height="10px" viewBox="0 0 9 10" version="1.1" xmlns="http://www.w3.org/2000/svg" xmlns:xlink="http://www.w3.org/1999/xlink">
    <!-- Generator: Sketch 63.1 (92452) - https://sketch.com -->
    <title>icon-start</title>
    <desc>Created with Sketch.</desc>
    <g id="Symbols" stroke="none" stroke-width="1" fill="none" fill-rule="evenodd">
        <g id="Power-Buttons" transform="translate(-22.000000, -7.000000)">
            <g id="Start">
                <g id="Group-2" transform="translate(22.000000, 6.000000)">
                    <g id="icon-start" transform="translate(0.000000, 1.000000)">
                        <g id="Path">
                            <g fill-rule="nonzero">
                                <path d="M1.18,9.29 C0.86,9.47 0.6,9.32 0.6,8.96 L0.6,1.16 C0.6,0.79 0.86,0.64 1.18,0.83 L7.94,4.73 C8.26,4.91 8.26,5.21 7.94,5.39 L1.18,9.29 Z" fill="#78CAC3"></path>
                                <path d="M6.38,6.21 C6.37,6.21 6.37,6.22 6.36,6.22 C5.87,6.5 5.38,6.79 4.89,7.07 C4.38,7.37 3.86,7.66 3.35,7.96 C2.91,8.21 2.47,8.47 2.04,8.72 C1.78,8.87 1.51,9.02 1.25,9.17 C1.21,9.19 1.18,9.21 1.14,9.23 C0.99,9.31 0.8,9.34 0.71,9.17 C0.68,9.1 0.67,9.03 0.67,8.95 C0.67,8.88 0.67,8.81 0.67,8.74 C0.67,8.39 0.67,8.04 0.67,7.7 C0.67,7.32 0.67,6.94 0.67,6.57 L0.53,6.57 C0.53,6.75 0.53,6.93 0.53,7.12 C0.53,7.56 0.53,8 0.53,8.44 C0.53,8.62 0.53,8.8 0.53,8.98 C0.53,9.14 0.58,9.31 0.72,9.4 C0.87,9.5 1.07,9.46 1.22,9.37 C1.37,9.28 1.52,9.2 1.67,9.11 C2.05,8.89 2.43,8.67 2.8,8.46 C3.3,8.17 3.8,7.88 4.3,7.59 C4.82,7.29 5.34,6.99 5.87,6.69 C6.07,6.58 6.26,6.46 6.46,6.35 L6.38,6.21 Z" fill="#000000"></path>
                                <path d="M7.95,4.65 C7.75,4.53 7.54,4.42 7.34,4.3 C6.93,4.06 6.52,3.83 6.11,3.59 C5.6,3.29 5.08,3 4.57,2.7 C4.06,2.4 3.55,2.11 3.04,1.81 C2.63,1.58 2.23,1.34 1.82,1.11 C1.62,1 1.43,0.88 1.23,0.77 C1.03,0.65 0.76,0.62 0.61,0.84 C0.53,0.95 0.53,1.09 0.53,1.22 C0.53,1.5 0.53,1.78 0.53,2.06 C0.53,2.56 0.53,3.06 0.53,3.56 C0.53,4.16 0.53,4.76 0.53,5.36 C0.53,5.46 0.53,5.57 0.53,5.67 L0.67,5.67 C0.67,5.22 0.67,4.77 0.67,4.31 C0.67,3.76 0.67,3.21 0.67,2.67 C0.67,2.28 0.67,1.89 0.67,1.5 C0.67,1.4 0.67,1.3 0.67,1.2 C0.67,1.07 0.67,0.92 0.79,0.84 C0.97,0.71 1.27,0.94 1.44,1.04 C1.77,1.23 2.1,1.42 2.43,1.61 C2.9,1.88 3.38,2.16 3.85,2.43 C4.36,2.73 4.88,3.02 5.39,3.32 C5.85,3.59 6.31,3.85 6.77,4.12 C7.08,4.3 7.38,4.47 7.69,4.65 C7.75,4.69 7.82,4.72 7.88,4.76 C7.94,4.79 7.99,4.83 8.04,4.88 C8.17,5.05 8.05,5.21 7.9,5.31 C7.75,5.4 7.61,5.48 7.46,5.57 C7.35,5.63 7.25,5.69 7.14,5.75 L7.21,5.88 C7.44,5.75 7.67,5.61 7.9,5.48 C8.01,5.41 8.13,5.34 8.2,5.22 C8.33,4.99 8.16,4.77 7.95,4.65 Z" fill="#000000"></path>
                            </g>
                        </g>
                    </g>
                </g>
            </g>
        </g>
    </g>
</svg>