<?xml version="1.0" encoding="UTF-8"?>
<svg width="8px" height="10px" viewBox="0 0 8 10" version="1.1" xmlns="http://www.w3.org/2000/svg" xmlns:xlink="http://www.w3.org/1999/xlink">
    <!-- Generator: Sketch 63.1 (92452) - https://sketch.com -->
    <title>icon-pause</title>
    <desc>Created with Sketch.</desc>
    <g id="Symbols" stroke="none" stroke-width="1" fill="none" fill-rule="evenodd">
        <g id="Power-Buttons" transform="translate(-109.000000, -7.000000)">
            <g id="Pause" transform="translate(90.000000, 0.000000)">
                <g id="Group-3" transform="translate(19.000000, 6.000000)">
                    <g id="icon-pause" transform="translate(0.000000, 1.000000)">
                        <g>
                            <path d="M2.14,9.57 L1.64,9.57 C1.21,9.57 0.87,9.22 0.87,8.8 L0.87,1.2 C0.87,0.77 1.22,0.43 1.64,0.43 L2.14,0.43 C2.57,0.43 2.91,0.78 2.91,1.2 L2.91,8.79 C2.91,9.22 2.56,9.57 2.14,9.57 Z" id="Path" fill="#78CAC3" fill-rule="nonzero"></path>
                            <path d="M6.27,9.57 L5.77,9.57 C5.34,9.57 5,9.22 5,8.8 L5,1.2 C5,0.77 5.35,0.43 5.77,0.43 L6.27,0.43 C6.7,0.43 7.04,0.78 7.04,1.2 L7.04,8.79 C7.04,9.22 6.69,9.57 6.27,9.57 Z" id="Path" fill="#78CAC3" fill-rule="nonzero"></path>
                            <g id="Group" transform="translate(4.000000, 0.000000)" fill="#000000" fill-rule="nonzero">
                                <path d="M2.97,8.57 C2.97,8.72 2.98,8.88 2.93,9.02 C2.83,9.3 2.56,9.48 2.27,9.49 C2.11,9.49 1.95,9.49 1.79,9.49 C1.51,9.49 1.26,9.34 1.14,9.09 C1.06,8.93 1.07,8.76 1.07,8.58 C1.07,7.99 1.07,7.39 1.07,6.8 C1.07,5.93 1.07,5.06 1.07,4.19 C1.07,3.44 1.07,2.68 1.07,1.93 C1.07,1.72 1.07,1.52 1.07,1.31 C1.07,1.27 1.07,1.23 1.07,1.19 C1.07,0.96 1.18,0.74 1.37,0.61 C1.56,0.48 1.77,0.48 1.99,0.48 C2.2,0.48 2.42,0.46 2.61,0.57 C2.83,0.69 2.97,0.93 2.97,1.19 C2.97,1.22 2.97,1.26 2.97,1.29 C2.97,1.82 2.97,2.35 2.97,2.88 C2.97,3.29 2.97,3.7 2.97,4.1 L3.11,4.1 C3.11,3.88 3.11,3.65 3.11,3.43 C3.11,2.78 3.11,2.13 3.11,1.47 C3.11,1.36 3.12,1.24 3.11,1.12 C3.09,0.81 2.89,0.53 2.61,0.41 C2.41,0.32 2.19,0.34 1.97,0.34 C1.74,0.34 1.51,0.34 1.31,0.48 C1.07,0.64 0.93,0.9 0.92,1.19 C0.92,1.3 0.92,1.41 0.92,1.52 C0.92,2.19 0.92,2.86 0.92,3.53 C0.92,4.43 0.92,5.33 0.92,6.23 C0.92,6.93 0.92,7.64 0.92,8.34 C0.92,8.48 0.92,8.63 0.92,8.77 C0.92,9.25 1.31,9.63 1.79,9.63 C1.95,9.63 2.11,9.63 2.27,9.63 C2.75,9.62 3.11,9.23 3.11,8.76 C3.11,8.69 3.11,8.63 3.11,8.56 L2.97,8.56 L2.97,8.57 Z" id="Path"></path>
                                <path d="M2.97,5 C2.97,5.16 2.97,5.31 2.97,5.47 C2.97,6.21 2.97,6.95 2.97,7.7 L3.11,7.7 C3.11,7.18 3.11,6.67 3.11,6.15 C3.11,5.77 3.11,5.39 3.11,5 L2.97,5 L2.97,5 Z" id="Path"></path>
                            </g>
                            <g id="Group" fill="#000000" fill-rule="nonzero">
                                <path d="M0.79,3.54 C0.79,3.7 0.79,3.86 0.79,4.02 L0.93,4.02 C0.93,3.51 0.93,3.01 0.93,2.5 L0.79,2.5 C0.79,2.85 0.79,3.2 0.79,3.54 Z" id="Path"></path>
                                <path d="M2.98,1.14 C2.96,0.83 2.76,0.55 2.48,0.43 C2.28,0.34 2.06,0.36 1.84,0.36 C1.61,0.36 1.38,0.36 1.18,0.5 C0.94,0.66 0.8,0.92 0.79,1.21 C0.79,1.32 0.79,1.43 0.79,1.54 C0.79,1.57 0.79,1.6 0.79,1.64 L0.93,1.64 C0.93,1.54 0.93,1.44 0.93,1.34 C0.93,1.3 0.93,1.26 0.93,1.22 C0.93,0.99 1.04,0.77 1.23,0.64 C1.42,0.51 1.63,0.51 1.85,0.51 C2.06,0.51 2.28,0.49 2.47,0.6 C2.7,0.72 2.83,0.96 2.83,1.22 C2.83,1.25 2.83,1.29 2.83,1.32 C2.83,1.85 2.83,2.38 2.83,2.91 C2.83,3.77 2.83,4.62 2.83,5.48 C2.83,6.27 2.83,7.06 2.83,7.85 C2.83,8.09 2.83,8.33 2.83,8.58 C2.83,8.73 2.84,8.89 2.79,9.04 C2.69,9.32 2.42,9.5 2.13,9.51 C1.97,9.51 1.81,9.51 1.65,9.51 C1.37,9.51 1.12,9.36 1,9.11 C0.92,8.95 0.93,8.78 0.93,8.6 C0.93,8.01 0.93,7.41 0.93,6.82 C0.93,6.18 0.93,5.55 0.93,4.91 L0.79,4.91 C0.79,5.36 0.79,5.8 0.79,6.25 C0.79,6.95 0.79,7.66 0.79,8.36 C0.79,8.5 0.79,8.65 0.79,8.79 C0.79,9.27 1.18,9.65 1.66,9.65 C1.82,9.65 1.98,9.65 2.14,9.65 C2.62,9.64 2.98,9.25 2.98,8.78 C2.98,8.62 2.98,8.47 2.98,8.31 C2.98,7.59 2.98,6.87 2.98,6.16 C2.98,5.26 2.98,4.36 2.98,3.46 C2.98,2.81 2.98,2.16 2.98,1.5 C2.98,1.38 2.99,1.26 2.98,1.14 Z" id="Path"></path>
                            </g>
                        </g>
                    </g>
                </g>
            </g>
        </g>
    </g>
</svg>