<?xml version="1.0" encoding="UTF-8"?>
<svg width="14px" height="14px" viewBox="0 0 14 14" version="1.1" xmlns="http://www.w3.org/2000/svg" xmlns:xlink="http://www.w3.org/1999/xlink">
    <!-- Generator: Sketch 63.1 (92452) - https://sketch.com -->
    <title>remove-icon</title>
    <desc>Created with Sketch.</desc>
    <defs>
        <linearGradient x1="50%" y1="100.009179%" x2="50%" y2="-0.00917852226%" id="linearGradient-1">
            <stop stop-color="#78CAC3" offset="0%"></stop>
            <stop stop-color="#ABDED8" offset="39.97%"></stop>
            <stop stop-color="#F4FAF6" offset="100%"></stop>
        </linearGradient>
    </defs>
    <g id="Page-1" stroke="none" stroke-width="1" fill="none" fill-rule="evenodd">
        <g id="BGN-Network" transform="translate(-799.000000, -651.000000)">
            <g id="Group-4" transform="translate(40.000000, 200.000000)">
                <g id="Recommended-for-You">
                    <g id="Header" transform="translate(0.000000, 30.000000)">
                        <g id="Group-2" transform="translate(40.000000, 65.000000)">
                            <g id="Group-6" transform="translate(0.000000, 152.000000)">
                                <g id="Group" transform="translate(0.000000, 42.000000)">
                                    <g id="Group-7" transform="translate(702.000000, 99.000000)">
                                        <g id="remove-icon" transform="translate(18.000000, 64.000000)">
                                            <g id="Cancel-V2-10">
                                                <path d="M11.3678571,9.04285714 L8.21785714,5.89285714 L11.3678571,2.74285714 C11.85,2.26071429 11.85,1.47857143 11.3678571,0.985714286 L10.8,0.417857143 C10.3178571,-0.0642857143 9.53571429,-0.0642857143 9.04285714,0.417857143 L5.89285714,3.56785714 L2.74285714,0.417857143 C2.26071429,-0.0642857143 1.47857143,-0.0642857143 0.985714286,0.417857143 L0.417857143,0.985714286 C-0.0642857143,1.46785714 -0.0642857143,2.25 0.417857143,2.74285714 L3.56785714,5.89285714 L0.417857143,9.04285714 C-0.0642857143,9.525 -0.0642857143,10.3071429 0.417857143,10.8 L0.985714286,11.3678571 C1.46785714,11.85 2.25,11.85 2.74285714,11.3678571 L5.89285714,8.21785714 L9.04285714,11.3678571 C9.525,11.85 10.3071429,11.85 10.8,11.3678571 L11.3678571,10.8 C11.85,10.3178571 11.85,9.525 11.3678571,9.04285714 Z" id="Path" fill="url(#linearGradient-1)" fill-rule="nonzero"></path>
                                                <g id="Group" stroke-linecap="round" stroke-linejoin="round" stroke="#000000" stroke-width="0.6">
                                                    <path d="M11.6035714,2.42142857 C11.8392857,1.96071429 11.7642857,1.37142857 11.3678571,0.985714286" id="Path"></path>
                                                    <path d="M10.3928571,0.15 C9.94285714,-0.0321428571 9.41785714,0.0642857143 9.05357143,0.417857143 L5.89285714,3.56785714 L2.74285714,0.417857143 C2.26071429,-0.0642857143 1.47857143,-0.0642857143 0.985714286,0.417857143 L0.417857143,0.985714286 C-0.0642857143,1.46785714 -0.0642857143,2.25 0.417857143,2.74285714 L3.56785714,5.89285714 L0.417857143,9.04285714 C-0.0642857143,9.525 -0.0642857143,10.3071429 0.417857143,10.8 L0.985714286,11.3678571 C1.46785714,11.85 2.25,11.85 2.74285714,11.3678571 L5.89285714,8.21785714 L9.04285714,11.3678571 C9.525,11.85 10.3071429,11.85 10.8,11.3678571 L11.3678571,10.8 C11.85,10.3178571 11.85,9.53571429 11.3678571,9.04285714 L8.21785714,5.89285714 L10.7678571,3.34285714" id="Path"></path>
                                                </g>
                                            </g>
                                        </g>
                                    </g>
                                </g>
                            </g>
                        </g>
                    </g>
                </g>
            </g>
        </g>
    </g>
</svg>